<mxfile host="app.diagrams.net" agent="Mozilla/5.0 (X11; Ubuntu; Linux x86_64; rv:134.0) Gecko/20100101 Firefox/134.0" version="26.0.4">
  <diagram name="Page-1" id="-8pN08DjR9dclOhDncZ9">
    <mxGraphModel dx="2284" dy="942" grid="1" gridSize="10" guides="1" tooltips="1" connect="1" arrows="1" fold="1" page="1" pageScale="1" pageWidth="850" pageHeight="1100" math="0" shadow="0">
      <root>
        <mxCell id="0" />
        <mxCell id="1" parent="0" />
        <mxCell id="qEprlFjEYrswAnBoQoSF-1" value="" style="rounded=1;whiteSpace=wrap;html=1;fillColor=none;strokeColor=#6c8ebf;gradientColor=default;" parent="1" vertex="1">
          <mxGeometry x="30" y="210" width="790" height="230" as="geometry" />
        </mxCell>
        <mxCell id="avrpnb0BwzV_zKIgConq-125" value="Local Cloud&lt;br&gt;&lt;hr&gt;" style="rounded=0;whiteSpace=wrap;html=1;fillColor=none;strokeWidth=2;align=center;verticalAlign=top;" parent="1" vertex="1">
          <mxGeometry x="-20" y="160" width="970" height="580" as="geometry" />
        </mxCell>
        <mxCell id="avrpnb0BwzV_zKIgConq-2" value="Service Registry" style="rounded=1;whiteSpace=wrap;html=1;fillColor=#dae8fc;strokeColor=#6c8ebf;" parent="1" vertex="1">
          <mxGeometry x="230" y="240" width="110" height="100" as="geometry" />
        </mxCell>
        <mxCell id="avrpnb0BwzV_zKIgConq-3" value="Orchestration" style="rounded=1;whiteSpace=wrap;html=1;fillColor=#d5e8d4;strokeColor=#82b366;" parent="1" vertex="1">
          <mxGeometry x="370" y="240" width="110" height="100" as="geometry" />
        </mxCell>
        <mxCell id="avrpnb0BwzV_zKIgConq-4" value="Authorization" style="rounded=1;whiteSpace=wrap;html=1;fillColor=#f8cecc;strokeColor=#b85450;" parent="1" vertex="1">
          <mxGeometry x="510" y="240" width="110" height="100" as="geometry" />
        </mxCell>
        <mxCell id="avrpnb0BwzV_zKIgConq-7" value="Light sensors" style="rounded=1;whiteSpace=wrap;html=1;" parent="1" vertex="1">
          <mxGeometry x="175" y="460" width="110" height="100" as="geometry" />
        </mxCell>
        <mxCell id="avrpnb0BwzV_zKIgConq-8" value="Weather sensors" style="rounded=1;whiteSpace=wrap;html=1;" parent="1" vertex="1">
          <mxGeometry x="175" y="580" width="110" height="100" as="geometry" />
        </mxCell>
        <mxCell id="avrpnb0BwzV_zKIgConq-10" value="Controller" style="rounded=1;whiteSpace=wrap;html=1;" parent="1" vertex="1">
          <mxGeometry x="365" y="515" width="110" height="100" as="geometry" />
        </mxCell>
        <mxCell id="avrpnb0BwzV_zKIgConq-11" value="Street lighting" style="rounded=1;whiteSpace=wrap;html=1;" parent="1" vertex="1">
          <mxGeometry x="545" y="515" width="110" height="100" as="geometry" />
        </mxCell>
        <mxCell id="avrpnb0BwzV_zKIgConq-21" value="" style="group" parent="1" vertex="1" connectable="0">
          <mxGeometry x="475" y="560" width="70" height="10" as="geometry" />
        </mxCell>
        <mxCell id="avrpnb0BwzV_zKIgConq-22" value="" style="rounded=0;orthogonalLoop=1;jettySize=auto;html=1;endArrow=halfCircle;endFill=0;endSize=6;strokeWidth=1;sketch=0;" parent="avrpnb0BwzV_zKIgConq-21" target="avrpnb0BwzV_zKIgConq-24" edge="1">
          <mxGeometry relative="1" as="geometry">
            <mxPoint x="70" y="5" as="sourcePoint" />
          </mxGeometry>
        </mxCell>
        <mxCell id="avrpnb0BwzV_zKIgConq-23" value="" style="rounded=0;orthogonalLoop=1;jettySize=auto;html=1;endArrow=oval;endFill=0;sketch=0;sourcePerimeterSpacing=0;targetPerimeterSpacing=0;endSize=10;" parent="avrpnb0BwzV_zKIgConq-21" target="avrpnb0BwzV_zKIgConq-24" edge="1">
          <mxGeometry relative="1" as="geometry">
            <mxPoint y="5" as="sourcePoint" />
          </mxGeometry>
        </mxCell>
        <mxCell id="avrpnb0BwzV_zKIgConq-24" value="" style="ellipse;whiteSpace=wrap;html=1;align=center;aspect=fixed;fillColor=none;strokeColor=none;resizable=0;perimeter=centerPerimeter;rotatable=0;allowArrows=0;points=[];outlineConnect=1;" parent="avrpnb0BwzV_zKIgConq-21" vertex="1">
          <mxGeometry x="26.25" width="10" height="10" as="geometry" />
        </mxCell>
        <mxCell id="avrpnb0BwzV_zKIgConq-59" value="" style="ellipse;whiteSpace=wrap;html=1;align=center;aspect=fixed;fillColor=none;strokeColor=none;resizable=0;perimeter=centerPerimeter;rotatable=0;allowArrows=0;points=[];outlineConnect=1;" parent="1" vertex="1">
          <mxGeometry x="410" y="580" width="10" height="10" as="geometry" />
        </mxCell>
        <mxCell id="avrpnb0BwzV_zKIgConq-60" value="EventHandler" style="rounded=1;whiteSpace=wrap;html=1;fillColor=#ffe6cc;strokeColor=#d79b00;" parent="1" vertex="1">
          <mxGeometry x="90" y="240" width="110" height="100" as="geometry" />
        </mxCell>
        <mxCell id="avrpnb0BwzV_zKIgConq-64" value="" style="rounded=0;whiteSpace=wrap;html=1;fillColor=#dae8fc;strokeColor=#6c8ebf;" parent="1" vertex="1">
          <mxGeometry x="170" y="480" width="10" height="10" as="geometry" />
        </mxCell>
        <mxCell id="avrpnb0BwzV_zKIgConq-65" value="" style="rounded=0;whiteSpace=wrap;html=1;fillColor=#d5e8d4;strokeColor=#82b366;" parent="1" vertex="1">
          <mxGeometry x="170" y="490" width="10" height="10" as="geometry" />
        </mxCell>
        <mxCell id="avrpnb0BwzV_zKIgConq-66" value="" style="rounded=0;whiteSpace=wrap;html=1;fillColor=#f8cecc;strokeColor=#b85450;" parent="1" vertex="1">
          <mxGeometry x="170" y="500" width="10" height="10" as="geometry" />
        </mxCell>
        <mxCell id="avrpnb0BwzV_zKIgConq-78" value="" style="group;rotation=-90;" parent="1" vertex="1" connectable="0">
          <mxGeometry x="415" y="495" width="10" height="40" as="geometry" />
        </mxCell>
        <mxCell id="avrpnb0BwzV_zKIgConq-74" value="" style="rounded=0;whiteSpace=wrap;html=1;fillColor=#dae8fc;strokeColor=#6c8ebf;rotation=-90;" parent="avrpnb0BwzV_zKIgConq-78" vertex="1">
          <mxGeometry x="-15" y="15" width="10" height="10" as="geometry" />
        </mxCell>
        <mxCell id="avrpnb0BwzV_zKIgConq-75" value="" style="rounded=0;whiteSpace=wrap;html=1;fillColor=#d5e8d4;strokeColor=#82b366;rotation=-90;" parent="avrpnb0BwzV_zKIgConq-78" vertex="1">
          <mxGeometry x="-5" y="15" width="10" height="10" as="geometry" />
        </mxCell>
        <mxCell id="avrpnb0BwzV_zKIgConq-76" value="" style="rounded=0;whiteSpace=wrap;html=1;fillColor=#f8cecc;strokeColor=#b85450;rotation=-90;" parent="avrpnb0BwzV_zKIgConq-78" vertex="1">
          <mxGeometry x="5" y="15" width="10" height="10" as="geometry" />
        </mxCell>
        <mxCell id="avrpnb0BwzV_zKIgConq-93" value="" style="group" parent="1" vertex="1" connectable="0">
          <mxGeometry x="170" y="600" width="10" height="40" as="geometry" />
        </mxCell>
        <mxCell id="avrpnb0BwzV_zKIgConq-89" value="" style="rounded=0;whiteSpace=wrap;html=1;fillColor=#dae8fc;strokeColor=#6c8ebf;" parent="avrpnb0BwzV_zKIgConq-93" vertex="1">
          <mxGeometry width="10" height="10" as="geometry" />
        </mxCell>
        <mxCell id="avrpnb0BwzV_zKIgConq-90" value="" style="rounded=0;whiteSpace=wrap;html=1;fillColor=#d5e8d4;strokeColor=#82b366;" parent="avrpnb0BwzV_zKIgConq-93" vertex="1">
          <mxGeometry y="10" width="10" height="10" as="geometry" />
        </mxCell>
        <mxCell id="avrpnb0BwzV_zKIgConq-91" value="" style="rounded=0;whiteSpace=wrap;html=1;fillColor=#f8cecc;strokeColor=#b85450;" parent="avrpnb0BwzV_zKIgConq-93" vertex="1">
          <mxGeometry y="20" width="10" height="10" as="geometry" />
        </mxCell>
        <mxCell id="avrpnb0BwzV_zKIgConq-119" value="" style="group" parent="1" vertex="1" connectable="0">
          <mxGeometry x="650" y="540" width="10" height="40" as="geometry" />
        </mxCell>
        <mxCell id="avrpnb0BwzV_zKIgConq-120" value="" style="rounded=0;whiteSpace=wrap;html=1;fillColor=#dae8fc;strokeColor=#6c8ebf;" parent="avrpnb0BwzV_zKIgConq-119" vertex="1">
          <mxGeometry width="10" height="10" as="geometry" />
        </mxCell>
        <mxCell id="avrpnb0BwzV_zKIgConq-121" value="" style="rounded=0;whiteSpace=wrap;html=1;fillColor=#d5e8d4;strokeColor=#82b366;" parent="avrpnb0BwzV_zKIgConq-119" vertex="1">
          <mxGeometry y="10" width="10" height="10" as="geometry" />
        </mxCell>
        <mxCell id="avrpnb0BwzV_zKIgConq-122" value="" style="rounded=0;whiteSpace=wrap;html=1;fillColor=#f8cecc;strokeColor=#b85450;" parent="avrpnb0BwzV_zKIgConq-119" vertex="1">
          <mxGeometry y="20" width="10" height="10" as="geometry" />
        </mxCell>
        <mxCell id="avrpnb0BwzV_zKIgConq-132" value="" style="group;rotation=-90;" parent="1" vertex="1" connectable="0">
          <mxGeometry x="420" y="320" width="10" height="40" as="geometry" />
        </mxCell>
        <mxCell id="avrpnb0BwzV_zKIgConq-133" value="" style="rounded=0;whiteSpace=wrap;html=1;fillColor=#dae8fc;strokeColor=#6c8ebf;rotation=-90;" parent="avrpnb0BwzV_zKIgConq-132" vertex="1">
          <mxGeometry x="-15" y="15" width="10" height="10" as="geometry" />
        </mxCell>
        <mxCell id="avrpnb0BwzV_zKIgConq-134" value="" style="rounded=0;whiteSpace=wrap;html=1;fillColor=#d5e8d4;strokeColor=#82b366;rotation=-90;" parent="avrpnb0BwzV_zKIgConq-132" vertex="1">
          <mxGeometry x="-5" y="15" width="10" height="10" as="geometry" />
        </mxCell>
        <mxCell id="avrpnb0BwzV_zKIgConq-135" value="" style="rounded=0;whiteSpace=wrap;html=1;fillColor=#f8cecc;strokeColor=#b85450;rotation=-90;" parent="avrpnb0BwzV_zKIgConq-132" vertex="1">
          <mxGeometry x="5" y="15" width="10" height="10" as="geometry" />
        </mxCell>
        <mxCell id="avrpnb0BwzV_zKIgConq-137" value="" style="group;rotation=-90;" parent="1" vertex="1" connectable="0">
          <mxGeometry x="560" y="320" width="10" height="40" as="geometry" />
        </mxCell>
        <mxCell id="avrpnb0BwzV_zKIgConq-138" value="" style="rounded=0;whiteSpace=wrap;html=1;fillColor=#dae8fc;strokeColor=#6c8ebf;rotation=-90;" parent="avrpnb0BwzV_zKIgConq-137" vertex="1">
          <mxGeometry x="-15" y="15" width="10" height="10" as="geometry" />
        </mxCell>
        <mxCell id="avrpnb0BwzV_zKIgConq-139" value="" style="rounded=0;whiteSpace=wrap;html=1;fillColor=#d5e8d4;strokeColor=#82b366;rotation=-90;" parent="avrpnb0BwzV_zKIgConq-137" vertex="1">
          <mxGeometry x="-5" y="15" width="10" height="10" as="geometry" />
        </mxCell>
        <mxCell id="avrpnb0BwzV_zKIgConq-140" value="" style="rounded=0;whiteSpace=wrap;html=1;fillColor=#f8cecc;strokeColor=#b85450;rotation=-90;" parent="avrpnb0BwzV_zKIgConq-137" vertex="1">
          <mxGeometry x="5" y="15" width="10" height="10" as="geometry" />
        </mxCell>
        <mxCell id="avrpnb0BwzV_zKIgConq-147" value="" style="group;rotation=-90;" parent="1" vertex="1" connectable="0">
          <mxGeometry x="280" y="320" width="10" height="40" as="geometry" />
        </mxCell>
        <mxCell id="avrpnb0BwzV_zKIgConq-148" value="" style="rounded=0;whiteSpace=wrap;html=1;fillColor=#dae8fc;strokeColor=#6c8ebf;rotation=-90;" parent="avrpnb0BwzV_zKIgConq-147" vertex="1">
          <mxGeometry x="-15" y="15" width="10" height="10" as="geometry" />
        </mxCell>
        <mxCell id="avrpnb0BwzV_zKIgConq-149" value="" style="rounded=0;whiteSpace=wrap;html=1;fillColor=#d5e8d4;strokeColor=#82b366;rotation=-90;" parent="avrpnb0BwzV_zKIgConq-147" vertex="1">
          <mxGeometry x="-5" y="15" width="10" height="10" as="geometry" />
        </mxCell>
        <mxCell id="avrpnb0BwzV_zKIgConq-150" value="" style="rounded=0;whiteSpace=wrap;html=1;fillColor=#f8cecc;strokeColor=#b85450;rotation=-90;" parent="avrpnb0BwzV_zKIgConq-147" vertex="1">
          <mxGeometry x="5" y="15" width="10" height="10" as="geometry" />
        </mxCell>
        <mxCell id="avrpnb0BwzV_zKIgConq-152" value="" style="group;rotation=-90;" parent="1" vertex="1" connectable="0">
          <mxGeometry x="140" y="320" width="10" height="40" as="geometry" />
        </mxCell>
        <mxCell id="avrpnb0BwzV_zKIgConq-153" value="" style="rounded=0;whiteSpace=wrap;html=1;fillColor=#dae8fc;strokeColor=#6c8ebf;rotation=-90;" parent="avrpnb0BwzV_zKIgConq-152" vertex="1">
          <mxGeometry x="-15" y="15" width="10" height="10" as="geometry" />
        </mxCell>
        <mxCell id="avrpnb0BwzV_zKIgConq-154" value="" style="rounded=0;whiteSpace=wrap;html=1;fillColor=#d5e8d4;strokeColor=#82b366;rotation=-90;" parent="avrpnb0BwzV_zKIgConq-152" vertex="1">
          <mxGeometry x="-5" y="15" width="10" height="10" as="geometry" />
        </mxCell>
        <mxCell id="avrpnb0BwzV_zKIgConq-155" value="" style="rounded=0;whiteSpace=wrap;html=1;fillColor=#f8cecc;strokeColor=#b85450;rotation=-90;" parent="avrpnb0BwzV_zKIgConq-152" vertex="1">
          <mxGeometry x="5" y="15" width="10" height="10" as="geometry" />
        </mxCell>
        <mxCell id="avrpnb0BwzV_zKIgConq-167" value="" style="rounded=0;orthogonalLoop=1;jettySize=auto;html=1;endArrow=halfCircle;endFill=0;endSize=6;strokeWidth=1;sketch=0;fillColor=#f8cecc;strokeColor=#b85450;" parent="1" target="avrpnb0BwzV_zKIgConq-169" edge="1">
          <mxGeometry relative="1" as="geometry">
            <mxPoint x="570" y="385" as="sourcePoint" />
          </mxGeometry>
        </mxCell>
        <mxCell id="avrpnb0BwzV_zKIgConq-168" value="" style="rounded=0;orthogonalLoop=1;jettySize=auto;html=1;endArrow=oval;endFill=0;sketch=0;sourcePerimeterSpacing=0;targetPerimeterSpacing=0;endSize=10;fillColor=#f8cecc;strokeColor=#b85450;" parent="1" target="avrpnb0BwzV_zKIgConq-169" edge="1">
          <mxGeometry relative="1" as="geometry">
            <mxPoint x="570" y="345" as="sourcePoint" />
          </mxGeometry>
        </mxCell>
        <mxCell id="avrpnb0BwzV_zKIgConq-169" value="" style="ellipse;whiteSpace=wrap;html=1;align=center;aspect=fixed;fillColor=none;strokeColor=#b85450;resizable=0;perimeter=centerPerimeter;rotatable=0;allowArrows=0;points=[];outlineConnect=1;rotation=90;" parent="1" vertex="1">
          <mxGeometry x="565" y="360" width="10" height="10" as="geometry" />
        </mxCell>
        <mxCell id="avrpnb0BwzV_zKIgConq-173" value="" style="rounded=0;orthogonalLoop=1;jettySize=auto;html=1;endArrow=halfCircle;endFill=0;endSize=6;strokeWidth=1;sketch=0;fillColor=#d5e8d4;strokeColor=#82b366;" parent="1" target="avrpnb0BwzV_zKIgConq-175" edge="1">
          <mxGeometry relative="1" as="geometry">
            <mxPoint x="420" y="395" as="sourcePoint" />
          </mxGeometry>
        </mxCell>
        <mxCell id="avrpnb0BwzV_zKIgConq-174" value="" style="rounded=0;orthogonalLoop=1;jettySize=auto;html=1;endArrow=oval;endFill=0;sketch=0;sourcePerimeterSpacing=0;targetPerimeterSpacing=0;endSize=10;fillColor=#d5e8d4;strokeColor=#82b366;exitX=0;exitY=0.5;exitDx=0;exitDy=0;" parent="1" source="avrpnb0BwzV_zKIgConq-134" target="avrpnb0BwzV_zKIgConq-175" edge="1">
          <mxGeometry relative="1" as="geometry">
            <mxPoint x="420" y="350" as="sourcePoint" />
          </mxGeometry>
        </mxCell>
        <mxCell id="avrpnb0BwzV_zKIgConq-175" value="" style="ellipse;whiteSpace=wrap;html=1;align=center;aspect=fixed;fillColor=none;strokeColor=#82b366;resizable=0;perimeter=centerPerimeter;rotatable=0;allowArrows=0;points=[];outlineConnect=1;rotation=90;" parent="1" vertex="1">
          <mxGeometry x="415" y="365" width="10" height="10" as="geometry" />
        </mxCell>
        <mxCell id="avrpnb0BwzV_zKIgConq-177" value="" style="rounded=0;orthogonalLoop=1;jettySize=auto;html=1;endArrow=halfCircle;endFill=0;endSize=6;strokeWidth=1;sketch=0;fillColor=#dae8fc;strokeColor=#6c8ebf;edgeStyle=orthogonalEdgeStyle;" parent="1" target="avrpnb0BwzV_zKIgConq-179" edge="1">
          <mxGeometry relative="1" as="geometry">
            <mxPoint x="270" y="400" as="sourcePoint" />
          </mxGeometry>
        </mxCell>
        <mxCell id="avrpnb0BwzV_zKIgConq-178" value="" style="rounded=0;orthogonalLoop=1;jettySize=auto;html=1;endArrow=oval;endFill=0;sketch=0;sourcePerimeterSpacing=0;targetPerimeterSpacing=0;endSize=10;fillColor=#dae8fc;strokeColor=#6c8ebf;" parent="1" target="avrpnb0BwzV_zKIgConq-179" edge="1">
          <mxGeometry relative="1" as="geometry">
            <mxPoint x="270" y="345" as="sourcePoint" />
          </mxGeometry>
        </mxCell>
        <mxCell id="avrpnb0BwzV_zKIgConq-179" value="" style="ellipse;whiteSpace=wrap;html=1;align=center;aspect=fixed;fillColor=none;strokeColor=#6c8ebf;resizable=0;perimeter=centerPerimeter;rotatable=0;allowArrows=0;points=[];outlineConnect=1;rotation=90;" parent="1" vertex="1">
          <mxGeometry x="265" y="360" width="10" height="10" as="geometry" />
        </mxCell>
        <mxCell id="avrpnb0BwzV_zKIgConq-183" value="" style="endArrow=none;html=1;rounded=0;entryX=0;entryY=0.5;entryDx=0;entryDy=0;fillColor=#dae8fc;strokeColor=#6c8ebf;" parent="1" target="avrpnb0BwzV_zKIgConq-153" edge="1">
          <mxGeometry width="50" height="50" relative="1" as="geometry">
            <mxPoint x="270" y="400" as="sourcePoint" />
            <mxPoint x="460" y="395" as="targetPoint" />
            <Array as="points">
              <mxPoint x="130" y="400" />
            </Array>
          </mxGeometry>
        </mxCell>
        <mxCell id="avrpnb0BwzV_zKIgConq-184" value="" style="endArrow=none;html=1;rounded=0;fillColor=#dae8fc;strokeColor=#6c8ebf;exitX=0;exitY=0.5;exitDx=0;exitDy=0;" parent="1" source="avrpnb0BwzV_zKIgConq-133" edge="1">
          <mxGeometry width="50" height="50" relative="1" as="geometry">
            <mxPoint x="430" y="435" as="sourcePoint" />
            <mxPoint x="270" y="400" as="targetPoint" />
            <Array as="points">
              <mxPoint x="410" y="400" />
            </Array>
          </mxGeometry>
        </mxCell>
        <mxCell id="avrpnb0BwzV_zKIgConq-185" value="" style="endArrow=none;html=1;rounded=0;fillColor=#dae8fc;strokeColor=#6c8ebf;exitX=0;exitY=0.5;exitDx=0;exitDy=0;" parent="1" edge="1">
          <mxGeometry width="50" height="50" relative="1" as="geometry">
            <mxPoint x="550" y="345" as="sourcePoint" />
            <mxPoint x="410" y="400" as="targetPoint" />
            <Array as="points">
              <mxPoint x="550" y="400" />
            </Array>
          </mxGeometry>
        </mxCell>
        <mxCell id="avrpnb0BwzV_zKIgConq-187" value="" style="endArrow=none;html=1;rounded=0;fillColor=#f8cecc;strokeColor=#b85450;" parent="1" edge="1">
          <mxGeometry width="50" height="50" relative="1" as="geometry">
            <mxPoint x="570" y="380" as="sourcePoint" />
            <mxPoint x="430" y="405" as="targetPoint" />
            <Array as="points">
              <mxPoint x="570" y="405" />
            </Array>
          </mxGeometry>
        </mxCell>
        <mxCell id="avrpnb0BwzV_zKIgConq-188" value="" style="endArrow=none;html=1;rounded=0;fillColor=#f8cecc;strokeColor=#b85450;exitX=0;exitY=0.5;exitDx=0;exitDy=0;" parent="1" source="avrpnb0BwzV_zKIgConq-135" edge="1">
          <mxGeometry width="50" height="50" relative="1" as="geometry">
            <mxPoint x="430" y="380" as="sourcePoint" />
            <mxPoint x="290" y="405" as="targetPoint" />
            <Array as="points">
              <mxPoint x="430" y="405" />
            </Array>
          </mxGeometry>
        </mxCell>
        <mxCell id="avrpnb0BwzV_zKIgConq-190" value="" style="endArrow=none;html=1;rounded=0;fillColor=#f8cecc;strokeColor=#b85450;exitX=0;exitY=0.5;exitDx=0;exitDy=0;entryX=0;entryY=0.5;entryDx=0;entryDy=0;" parent="1" target="avrpnb0BwzV_zKIgConq-155" edge="1">
          <mxGeometry width="50" height="50" relative="1" as="geometry">
            <mxPoint x="290" y="345" as="sourcePoint" />
            <mxPoint x="150" y="405" as="targetPoint" />
            <Array as="points">
              <mxPoint x="290" y="405" />
              <mxPoint x="150" y="405" />
            </Array>
          </mxGeometry>
        </mxCell>
        <mxCell id="avrpnb0BwzV_zKIgConq-194" value="" style="endArrow=none;html=1;rounded=0;entryX=0;entryY=0.5;entryDx=0;entryDy=0;fillColor=#d5e8d4;strokeColor=#82b366;" parent="1" target="avrpnb0BwzV_zKIgConq-139" edge="1">
          <mxGeometry width="50" height="50" relative="1" as="geometry">
            <mxPoint x="560" y="395" as="sourcePoint" />
            <mxPoint x="560" y="350" as="targetPoint" />
            <Array as="points">
              <mxPoint x="140" y="395" />
              <mxPoint x="560" y="395" />
            </Array>
          </mxGeometry>
        </mxCell>
        <mxCell id="avrpnb0BwzV_zKIgConq-195" value="" style="endArrow=none;html=1;rounded=0;entryX=0;entryY=0.5;entryDx=0;entryDy=0;fillColor=#d5e8d4;strokeColor=#82b366;" parent="1" edge="1">
          <mxGeometry width="50" height="50" relative="1" as="geometry">
            <mxPoint x="140" y="395" as="sourcePoint" />
            <mxPoint x="140" y="345" as="targetPoint" />
          </mxGeometry>
        </mxCell>
        <mxCell id="avrpnb0BwzV_zKIgConq-196" value="" style="endArrow=none;html=1;rounded=0;fillColor=#d5e8d4;strokeColor=#82b366;entryX=0;entryY=0.5;entryDx=0;entryDy=0;" parent="1" target="avrpnb0BwzV_zKIgConq-149" edge="1">
          <mxGeometry width="50" height="50" relative="1" as="geometry">
            <mxPoint x="280" y="394.5" as="sourcePoint" />
            <mxPoint x="280" y="350" as="targetPoint" />
          </mxGeometry>
        </mxCell>
        <mxCell id="qEprlFjEYrswAnBoQoSF-2" value="&lt;font color=&quot;#004c99&quot;&gt;Arrowhead Framework&lt;/font&gt;" style="text;html=1;align=center;verticalAlign=middle;whiteSpace=wrap;rounded=0;" parent="1" vertex="1">
          <mxGeometry x="55" y="400" width="60" height="30" as="geometry" />
        </mxCell>
        <mxCell id="qEprlFjEYrswAnBoQoSF-3" value="" style="rounded=0;whiteSpace=wrap;html=1;fillColor=#dae8fc;strokeColor=#6c8ebf;rotation=-90;" parent="1" vertex="1">
          <mxGeometry x="405" y="430" width="10" height="10" as="geometry" />
        </mxCell>
        <mxCell id="qEprlFjEYrswAnBoQoSF-4" value="" style="rounded=0;whiteSpace=wrap;html=1;fillColor=#d5e8d4;strokeColor=#82b366;rotation=-90;" parent="1" vertex="1">
          <mxGeometry x="415" y="430" width="10" height="10" as="geometry" />
        </mxCell>
        <mxCell id="qEprlFjEYrswAnBoQoSF-5" value="" style="rounded=0;whiteSpace=wrap;html=1;fillColor=#f8cecc;strokeColor=#b85450;rotation=-90;" parent="1" vertex="1">
          <mxGeometry x="425" y="430" width="10" height="10" as="geometry" />
        </mxCell>
        <mxCell id="qEprlFjEYrswAnBoQoSF-8" value="" style="endArrow=none;html=1;rounded=0;entryX=1;entryY=0.5;entryDx=0;entryDy=0;fillColor=#f8cecc;strokeColor=#b85450;" parent="1" edge="1">
          <mxGeometry width="50" height="50" relative="1" as="geometry">
            <mxPoint x="430" y="400" as="sourcePoint" />
            <mxPoint x="430" y="430" as="targetPoint" />
          </mxGeometry>
        </mxCell>
        <mxCell id="qEprlFjEYrswAnBoQoSF-10" value="" style="endArrow=none;html=1;rounded=0;entryX=1;entryY=0.5;entryDx=0;entryDy=0;fillColor=#dae8fc;strokeColor=#6c8ebf;" parent="1" edge="1">
          <mxGeometry width="50" height="50" relative="1" as="geometry">
            <mxPoint x="410" y="400" as="sourcePoint" />
            <mxPoint x="410" y="430" as="targetPoint" />
          </mxGeometry>
        </mxCell>
        <mxCell id="qEprlFjEYrswAnBoQoSF-11" value="" style="endArrow=none;html=1;rounded=0;entryX=1;entryY=0.5;entryDx=0;entryDy=0;fillColor=#d5e8d4;strokeColor=#82b366;" parent="1" target="qEprlFjEYrswAnBoQoSF-4" edge="1">
          <mxGeometry width="50" height="50" relative="1" as="geometry">
            <mxPoint x="420" y="395" as="sourcePoint" />
            <mxPoint x="420" y="425" as="targetPoint" />
          </mxGeometry>
        </mxCell>
        <mxCell id="J2917CjnjpTylw5uDzdK-1" value="" style="rounded=0;whiteSpace=wrap;html=1;fillColor=#fff2cc;strokeColor=#d6b656;" parent="1" vertex="1">
          <mxGeometry x="105" y="335" width="10" height="10" as="geometry" />
        </mxCell>
        <mxCell id="J2917CjnjpTylw5uDzdK-2" value="" style="rounded=0;whiteSpace=wrap;html=1;fillColor=#fff2cc;strokeColor=#d6b656;" parent="1" vertex="1">
          <mxGeometry x="170" y="530" width="10" height="10" as="geometry" />
        </mxCell>
        <mxCell id="J2917CjnjpTylw5uDzdK-3" value="" style="rounded=0;whiteSpace=wrap;html=1;fillColor=#fff2cc;strokeColor=#d6b656;" parent="1" vertex="1">
          <mxGeometry x="170" y="650" width="10" height="10" as="geometry" />
        </mxCell>
        <mxCell id="J2917CjnjpTylw5uDzdK-13" value="" style="rounded=0;whiteSpace=wrap;html=1;fillColor=#fff2cc;strokeColor=#d6b656;" parent="1" vertex="1">
          <mxGeometry x="380" y="510" width="10" height="10" as="geometry" />
        </mxCell>
        <mxCell id="8cAUyh3-9aXOjtjujzbl-1" value="" style="endArrow=none;html=1;rounded=0;entryX=0.5;entryY=1;entryDx=0;entryDy=0;exitX=0;exitY=0.75;exitDx=0;exitDy=0;fillColor=#fff2cc;strokeColor=#d6b656;" parent="1" source="avrpnb0BwzV_zKIgConq-7" target="J2917CjnjpTylw5uDzdK-1" edge="1">
          <mxGeometry width="50" height="50" relative="1" as="geometry">
            <mxPoint x="400" y="490" as="sourcePoint" />
            <mxPoint x="450" y="440" as="targetPoint" />
            <Array as="points">
              <mxPoint x="110" y="535" />
            </Array>
          </mxGeometry>
        </mxCell>
        <mxCell id="8cAUyh3-9aXOjtjujzbl-2" value="" style="endArrow=none;html=1;rounded=0;exitX=0;exitY=0.75;exitDx=0;exitDy=0;fillColor=#fff2cc;strokeColor=#d6b656;" parent="1" source="avrpnb0BwzV_zKIgConq-8" edge="1">
          <mxGeometry width="50" height="50" relative="1" as="geometry">
            <mxPoint x="185" y="545" as="sourcePoint" />
            <mxPoint x="110" y="530" as="targetPoint" />
            <Array as="points">
              <mxPoint x="110" y="655" />
            </Array>
          </mxGeometry>
        </mxCell>
        <mxCell id="8cAUyh3-9aXOjtjujzbl-3" value="" style="endArrow=none;html=1;rounded=0;exitX=0.5;exitY=0;exitDx=0;exitDy=0;fillColor=#fff2cc;strokeColor=#d6b656;" parent="1" source="J2917CjnjpTylw5uDzdK-13" edge="1">
          <mxGeometry width="50" height="50" relative="1" as="geometry">
            <mxPoint x="185" y="665" as="sourcePoint" />
            <mxPoint x="110" y="450" as="targetPoint" />
            <Array as="points">
              <mxPoint x="385" y="450" />
            </Array>
          </mxGeometry>
        </mxCell>
        <mxCell id="ILUqMo1zsfebkw4r7QQn-1" value="" style="group" vertex="1" connectable="0" parent="1">
          <mxGeometry x="285" y="530" width="80" height="10" as="geometry" />
        </mxCell>
        <mxCell id="ILUqMo1zsfebkw4r7QQn-2" value="" style="rounded=0;orthogonalLoop=1;jettySize=auto;html=1;endArrow=halfCircle;endFill=0;endSize=6;strokeWidth=1;sketch=0;" edge="1" parent="ILUqMo1zsfebkw4r7QQn-1" target="ILUqMo1zsfebkw4r7QQn-4">
          <mxGeometry relative="1" as="geometry">
            <mxPoint x="80" y="5" as="sourcePoint" />
          </mxGeometry>
        </mxCell>
        <mxCell id="ILUqMo1zsfebkw4r7QQn-3" value="" style="rounded=0;orthogonalLoop=1;jettySize=auto;html=1;endArrow=oval;endFill=0;sketch=0;sourcePerimeterSpacing=0;targetPerimeterSpacing=0;endSize=10;" edge="1" parent="ILUqMo1zsfebkw4r7QQn-1" target="ILUqMo1zsfebkw4r7QQn-4">
          <mxGeometry relative="1" as="geometry">
            <mxPoint y="5" as="sourcePoint" />
          </mxGeometry>
        </mxCell>
        <mxCell id="ILUqMo1zsfebkw4r7QQn-4" value="" style="ellipse;whiteSpace=wrap;html=1;align=center;aspect=fixed;fillColor=none;strokeColor=none;resizable=0;perimeter=centerPerimeter;rotatable=0;allowArrows=0;points=[];outlineConnect=1;" vertex="1" parent="ILUqMo1zsfebkw4r7QQn-1">
          <mxGeometry x="30" width="10" height="10" as="geometry" />
        </mxCell>
        <mxCell id="ILUqMo1zsfebkw4r7QQn-5" value="" style="group" vertex="1" connectable="0" parent="1">
          <mxGeometry x="285" y="590" width="80" height="10" as="geometry" />
        </mxCell>
        <mxCell id="ILUqMo1zsfebkw4r7QQn-6" value="" style="rounded=0;orthogonalLoop=1;jettySize=auto;html=1;endArrow=halfCircle;endFill=0;endSize=6;strokeWidth=1;sketch=0;" edge="1" parent="ILUqMo1zsfebkw4r7QQn-5" target="ILUqMo1zsfebkw4r7QQn-8">
          <mxGeometry relative="1" as="geometry">
            <mxPoint x="80" y="5" as="sourcePoint" />
          </mxGeometry>
        </mxCell>
        <mxCell id="ILUqMo1zsfebkw4r7QQn-7" value="" style="rounded=0;orthogonalLoop=1;jettySize=auto;html=1;endArrow=oval;endFill=0;sketch=0;sourcePerimeterSpacing=0;targetPerimeterSpacing=0;endSize=10;" edge="1" parent="ILUqMo1zsfebkw4r7QQn-5" target="ILUqMo1zsfebkw4r7QQn-8">
          <mxGeometry relative="1" as="geometry">
            <mxPoint y="5" as="sourcePoint" />
          </mxGeometry>
        </mxCell>
        <mxCell id="ILUqMo1zsfebkw4r7QQn-8" value="" style="ellipse;whiteSpace=wrap;html=1;align=center;aspect=fixed;fillColor=none;strokeColor=none;resizable=0;perimeter=centerPerimeter;rotatable=0;allowArrows=0;points=[];outlineConnect=1;" vertex="1" parent="ILUqMo1zsfebkw4r7QQn-5">
          <mxGeometry x="30" width="10" height="10" as="geometry" />
        </mxCell>
      </root>
    </mxGraphModel>
  </diagram>
</mxfile>
